# xmcd
#
# Track frame offsets: 
#        150
#        13785
#        32749
#        46089
#        62910
#        87266
#        99202
#        110506
#        131770
#        145857
#        158067
#        172022
#        191390
#        204133
#        221040
#        240383
#        251869
#
# Disc length: 3593 seconds
#
# Revision: 4
# Processed by: cddbd v1.5.2PL0 Copyright (c) Steve Scherf et al.
# Submitted via: ExactAudioCopy v0.99pb5
#
DISCID=e60e0711
DTITLE=林子祥 - 2007 精選100首 Disc 2
DYEAR=2007
DGENRE=Pop
TTITLE0=分分鐘需要你
TTITLE1=美麗的小姑娘
TTITLE2=能否知我心
TTITLE3=在水中央
TTITLE4=她的歌聲
TTITLE5=不要離去
TTITLE6=一個人
TTITLE7=人生之歌
TTITLE8=美好的一刻
TTITLE9=執到寶
TTITLE10=畫家
TTITLE11=妳在何方
TTITLE12=愛的種子 (一)
TTITLE13=他的一生
TTITLE14=世運在莫斯科
TTITLE15=可以不可以
TTITLE16=有句話
EXTD=林子祥 YEAR: 2007
EXTT0=
EXTT1=
EXTT2=
EXTT3=
EXTT4=
EXTT5=
EXTT6=
EXTT7=
EXTT8=
EXTT9=
EXTT10=
EXTT11=
EXTT12=
EXTT13=
EXTT14=
EXTT15=
EXTT16=
PLAYORDER=
